<?xml version="1.0" standalone="no"?>
<!DOCTYPE svg PUBLIC "-//W3C//DTD SVG 20010904//EN"
 "http://www.w3.org/TR/2001/REC-SVG-20010904/DTD/svg10.dtd">
<svg version="1.0" xmlns="http://www.w3.org/2000/svg"
 width="580.000000pt" height="578.000000pt" viewBox="0 0 580.000000 578.000000"
 preserveAspectRatio="xMidYMid meet">

<g transform="translate(0.000000,578.000000) scale(0.100000,-0.100000)"
fill="#000000" stroke="none">
<path d="M2620 5733 c-316 -32 -665 -129 -948 -263 -922 -440 -1530 -1314
-1623 -2334 -16 -171 -6 -491 20 -661 77 -509 284 -979 608 -1385 94 -119 309
-332 431 -428 430 -341 923 -545 1468 -608 193 -23 587 -15 759 15 754 129
1388 508 1833 1095 307 406 497 877 563 1401 17 130 17 522 0 650 -33 256 -92
494 -180 716 -387 985 -1277 1671 -2326 1794 -118 14 -500 19 -605 8z m550
-63 c217 -23 451 -75 650 -146 266 -95 594 -280 820 -460 109 -88 326 -305
414 -414 219 -274 401 -618 501 -946 120 -398 149 -862 79 -1284 -74 -443
-286 -912 -580 -1280 -94 -118 -309 -331 -431 -428 -387 -306 -820 -494 -1335
-579 -81 -14 -168 -17 -408 -17 -335 -1 -424 9 -679 74 -922 234 -1661 919
-1961 1820 -97 292 -130 491 -137 826 -6 275 5 409 54 639 103 495 355 972
708 1343 449 472 1041 768 1695 847 128 16 480 18 610 5z"/>
<path d="M2570 5575 c-517 -65 -972 -257 -1380 -581 -108 -87 -316 -294 -404
-404 -334 -418 -530 -900 -587 -1439 -15 -144 -6 -510 15 -651 174 -1127 1024
-2023 2135 -2250 329 -67 743 -67 1072 0 518 106 985 357 1365 735 424 423
681 933 772 1538 24 163 24 589 -1 747 -67 429 -201 778 -432 1125 -103 154
-191 261 -330 401 -416 418 -924 675 -1525 769 -148 23 -547 29 -700 10z m333
-1057 c12 -6 92 -65 178 -130 l156 -119 145 -247 c80 -136 414 -706 743 -1267
350 -596 601 -1033 603 -1051 3 -24 -1 -35 -19 -48 -21 -14 -82 -16 -571 -16
-509 0 -549 1 -563 18 -8 9 -62 87 -119 172 -174 260 -281 413 -291 413 -6 0
-91 -135 -190 -299 l-180 -299 -505 -3 c-584 -3 -479 -20 -815 133 -181 83
-200 94 -203 118 -2 15 6 38 17 54 11 15 204 334 429 708 891 1482 1096 1821
1114 1848 21 30 38 33 71 15z"/>
<path d="M2849 4357 c-34 -59 -1018 -1691 -1325 -2199 -125 -207 -141 -239
-126 -247 39 -20 332 -151 340 -151 4 0 15 12 24 28 50 85 1388 2424 1388
2427 0 4 -237 186 -255 197 -6 4 -27 -21 -46 -55z"/>
<path d="M2535 2953 c-368 -642 -675 -1178 -683 -1190 l-14 -23 454 0 455 0
192 320 c105 175 196 322 202 325 32 20 61 -14 272 -325 l219 -320 490 0 489
0 -32 58 c-165 288 -1361 2318 -1367 2320 -5 1 -309 -523 -677 -1165z"/>
</g>
</svg>
